<?xml version="1.0" encoding="UTF-8"?>
<svg version="1.1" xmlns="http://www.w3.org/2000/svg" width="512" height="512">
<path d="M0 0 C1.02222656 -0.0515625 2.04445312 -0.103125 3.09765625 -0.15625 C12.82971245 1.50701088 21.73486478 8.01136752 30.125 13 C39.95222642 18.79153296 49.8588367 24.42341861 59.8269043 29.96875 C60.81601807 30.51917969 61.80513184 31.06960937 62.82421875 31.63671875 C64.12685669 32.35927856 64.12685669 32.35927856 65.45581055 33.09643555 C67.9375 34.5 67.9375 34.5 70.38208008 36.24145508 C73.75315912 37.90171231 75.35975854 37.53052951 78.9375 36.5 C81.80725592 35.19177985 81.80725592 35.19177985 84.6640625 33.46484375 C85.76524414 32.82772461 86.86642578 32.19060547 88.00097656 31.53417969 C89.18818393 30.83534233 90.37535758 30.13644768 91.5625 29.4375 C92.79597395 28.72068841 94.03003369 28.00488399 95.26464844 27.29003906 C97.8438283 25.79551333 100.42039934 24.29663265 102.99511719 22.79443359 C108.76911975 19.42921628 114.56809391 16.10769568 120.36981201 12.79055786 C122.14728502 11.77302156 123.92266998 10.75192153 125.69775391 9.73022461 C128.7684932 7.96980299 131.84805194 6.22734092 134.9375 4.5 C136.09572266 3.84644531 136.09572266 3.84644531 137.27734375 3.1796875 C144.03334891 -0.44925241 150.98893318 -0.91161041 158.375 1.1953125 C163.83576396 3.65679322 167.42043749 7.38070656 170.05078125 12.7890625 C172.04459728 18.88469389 171.7961606 25.96921088 169.75 32 C166.39728324 36.62443691 162.55769794 39.9922546 157.6875 42.9375 C157.14649658 43.26476074 156.60549316 43.59202148 156.0480957 43.92919922 C149.09239989 48.08382507 141.98484714 51.9814528 134.90258789 55.91455078 C126.03443131 60.84901109 117.26871173 65.9453829 108.5534668 71.14501953 C107.61156494 71.7017334 106.66966309 72.25844727 105.69921875 72.83203125 C104.87381592 73.32421143 104.04841309 73.8163916 103.19799805 74.32348633 C101.07449631 75.428698 99.25320707 75.96867989 96.9375 76.5 C96.94638245 77.74535019 96.95526489 78.99070038 96.9644165 80.27378845 C97.04562054 92.02913386 97.10552227 103.7844221 97.14474869 115.5399847 C97.16559359 121.58317218 97.19385512 127.62613262 97.23925781 133.66918945 C97.2828253 139.50472294 97.3066604 145.3400385 97.31700897 151.17572212 C97.32438072 153.39839672 97.33877598 155.62105984 97.36042023 157.84364128 C97.38959853 160.96494894 97.3934499 164.08536428 97.39160156 167.20678711 C97.40598267 168.11885422 97.42036377 169.03092133 97.43518066 169.97062683 C97.39113966 176.87635372 96.00551546 183.19121869 91.18732071 188.38752651 C85.28321056 193.81104449 79.85172826 194.97359433 71.94140625 194.80859375 C64.92300602 194.08758774 60.62834575 190.73892991 56.1640625 185.4765625 C52.6079863 179.74607029 52.65970484 174.06002059 52.71044922 167.54736328 C52.71015717 166.5613765 52.70986511 165.57538971 52.70956421 164.55952454 C52.71095325 161.31302981 52.72649458 158.06676695 52.7421875 154.8203125 C52.74591914 152.56444423 52.7487654 150.30857433 52.75076294 148.05270386 C52.7583875 142.12450664 52.77802597 136.19640791 52.8001709 130.26824951 C52.82065464 124.21530489 52.82977007 118.16234431 52.83984375 112.109375 C52.8612729 100.23954014 52.89539471 88.36977827 52.9375 76.5 C51.99880569 76.19660706 51.06011139 75.89321411 50.0929718 75.58062744 C47.09994987 74.55563282 44.68802933 73.3522194 41.98046875 71.734375 C41.04509277 71.18096436 40.1097168 70.62755371 39.14599609 70.05737305 C38.14906738 69.46093994 37.15213867 68.86450684 36.125 68.25 C27.42212268 63.099468 18.65924356 58.08653205 9.8125 53.1875 C-3.88078812 45.55248005 -3.88078812 45.55248005 -10.375 41.5 C-11.40238281 40.860625 -12.42976562 40.22125 -13.48828125 39.5625 C-17.30525724 36.50428555 -19.52175795 33.12222614 -21.0625 28.5 C-21.73026471 20.9924168 -22.20134757 14.26015679 -17.48828125 8.046875 C-12.42000016 2.54813716 -7.46016758 0.22186372 0 0 Z " fill="#AE00FF" transform="translate(181.0625,191.5)"/>
<path d="M0 0 C1.13824219 -0.02578125 2.27648437 -0.0515625 3.44921875 -0.078125 C13.40334257 0.76732131 21.73727868 5.22808852 30.5 9.75 C33.00323994 11.02472203 35.50954791 12.29336693 38.015625 13.5625 C38.63888168 13.87908569 39.26213837 14.19567139 39.90428162 14.52185059 C45.47992976 17.34955072 51.10253697 20.06930929 56.75 22.75 C57.64984619 23.17869385 58.54969238 23.6073877 59.47680664 24.04907227 C63.02582703 25.73903765 66.57588826 27.42679828 70.12786865 29.11053467 C74.08140236 30.98462623 78.0318311 32.86502901 81.97879028 34.75292969 C83.27097771 35.36947843 84.56431295 35.98362802 85.8588562 36.59521484 C87.67180519 37.45193919 89.48051513 38.31761623 91.2890625 39.18359375 C92.33143066 39.67915771 93.37379883 40.17472168 94.44775391 40.68530273 C101.35599018 44.45851615 104.78719832 48.8707373 107.3125 56.25 C108.31123705 62.45766736 107.82472882 67.97954634 104.6484375 73.46484375 C100.60789271 78.86405126 95.66548706 82.42606778 88.98046875 83.69140625 C79.73252935 84.14288046 72.37156209 80.25698611 64.3125 76.25 C63.29381836 75.7456543 62.27513672 75.24130859 61.22558594 74.72167969 C56.51358614 72.38280686 51.80652359 70.03454863 47.10961914 67.66552734 C38.44345048 63.29534674 29.72915867 59.03831621 20.94921875 54.90063477 C17.06447685 53.06644386 13.20366598 51.22939721 9.43359375 49.16796875 C7.85771484 48.31138672 7.85771484 48.31138672 6.25 47.4375 C5.41339844 46.95667969 4.57679688 46.47585937 3.71484375 45.98046875 C-1.32603005 44.44771525 -6.57442879 48.07864203 -11.02734375 50.33984375 C-11.6223468 50.64014999 -12.21734985 50.94045624 -12.8303833 51.24986267 C-14.10327956 51.89252986 -15.37532336 52.53688782 -16.64657593 53.18280029 C-20.01473023 54.89324432 -23.39015607 56.58920428 -26.765625 58.28515625 C-27.44179367 58.6251062 -28.11796234 58.96505615 -28.81462097 59.31530762 C-37.49050116 63.6688175 -46.25195493 67.84075025 -55.02685547 71.99023438 C-57.76138194 73.28498172 -60.49233977 74.58702562 -63.22265625 75.890625 C-64.96086998 76.71889172 -66.69914817 77.54702317 -68.4375 78.375 C-69.23051514 78.75382324 -70.02353027 79.13264648 -70.84057617 79.52294922 C-71.56865479 79.8685791 -72.2967334 80.21420898 -73.046875 80.5703125 C-73.99771973 81.02301514 -73.99771973 81.02301514 -74.96777344 81.48486328 C-80.61856684 83.99900106 -87.01853582 84.28933115 -92.9765625 82.6015625 C-98.82385411 79.96012189 -103.08086119 75.63995268 -105.82421875 69.8515625 C-108.3007653 62.38830457 -106.94822544 55.57819815 -103.66015625 48.63671875 C-97.84043516 41.59543245 -88.5183249 38.04424924 -80.4375 34.25 C-77.88636543 33.03862417 -75.3377962 31.82188631 -72.7890625 30.60546875 C-72.09654388 30.27572556 -71.40402527 29.94598236 -70.69052124 29.60624695 C-64.44818897 26.6283937 -58.23382055 23.59461644 -52.0234375 20.55078125 C-51.0171228 20.05762421 -50.01080811 19.56446716 -48.97399902 19.05636597 C-44.91361751 17.06567072 -40.853755 15.07392422 -36.7947998 13.08032227 C-33.92903487 11.67314623 -31.06224627 10.26807404 -28.1953125 8.86328125 C-27.33908295 8.44194412 -26.48285339 8.02060699 -25.60067749 7.58650208 C-16.98300745 3.36694763 -9.75927382 0.13114366 0 0 Z " fill="#D700FF" transform="translate(255.6875,23.75)"/>
<path d="M0 0 C3.59401617 1.83370963 7.10404712 3.80216688 10.61206055 5.79443359 C12.49321537 6.84324873 14.37474676 7.89138864 16.2565918 8.93896484 C21.18209994 11.69391693 26.0839264 14.48846582 30.98022461 17.29492188 C33.29371602 18.61305399 35.61627198 19.91128181 37.94799805 21.19677734 C47.82951421 26.65928557 54.92396267 30.73756759 58.61206055 41.79443359 C59.0970227 44.82870512 59.1059876 47.76236027 59.0378418 50.82958984 C59.03505219 51.68611145 59.03226257 52.54263306 59.02938843 53.42510986 C59.01470196 56.23629488 58.97048602 59.04609881 58.92456055 61.85693359 C58.90543798 63.83177495 58.88764014 65.80662952 58.87109375 67.78149414 C58.82093981 73.02781693 58.74249663 78.27339542 58.6595459 83.51928711 C58.59527635 87.95206863 58.55485789 92.38496632 58.51319885 96.81800842 C58.46869902 101.19029219 58.40912521 105.56226575 58.34457397 109.93429565 C58.31473781 112.03720929 58.28883283 114.14018264 58.26699829 116.24319458 C58.23366587 119.19430492 58.18128 122.14448881 58.1237793 125.09521484 C58.1173642 125.96108215 58.1109491 126.82694946 58.1043396 127.71905518 C57.93566968 134.68770923 56.56238895 141.2143097 51.79956055 146.60693359 C51.33936523 147.14962891 50.87916992 147.69232422 50.4050293 148.25146484 C44.74414588 153.12303118 39.2065101 153.3748634 32.0300293 153.20849609 C25.72918846 152.44519423 21.92247417 149.42832196 17.73706055 144.85693359 C13.10990385 138.18838423 13.3421341 131.89195171 13.41674805 124.05224609 C13.41957794 122.92873749 13.42240784 121.80522888 13.42532349 120.64767456 C13.43648752 117.07148433 13.46158554 113.4955477 13.48706055 109.91943359 C13.49709521 107.48974972 13.50622021 105.06006191 13.5144043 102.63037109 C13.53641451 96.68497257 13.56985466 90.73972121 13.61206055 84.79443359 C13.11802734 85.0618335 12.62399414 85.3292334 12.11499023 85.60473633 C9.86647096 86.81841972 7.6143321 88.02522875 5.36206055 89.23193359 C4.58475586 89.6528125 3.80745117 90.07369141 3.0065918 90.50732422 C2.25249023 90.91015625 1.49838867 91.31298828 0.72143555 91.72802734 C0.03017578 92.09984131 -0.66108398 92.47165527 -1.37329102 92.85473633 C-7.23201521 95.587435 -13.52140734 95.65018389 -19.57543945 93.54443359 C-26.14352114 90.76810161 -29.26348211 87.04334827 -32.38793945 80.79443359 C-34.71101323 74.79315968 -33.6391145 68.56836775 -31.43481445 62.75146484 C-28.21475009 56.7318669 -23.9806723 54.08394988 -18.13793945 50.98193359 C-17.02032227 50.37188477 -17.02032227 50.37188477 -15.88012695 49.74951172 C-14.05461852 48.75484366 -12.22197205 47.77329518 -10.38793945 46.79443359 C-13.56731139 44.14779065 -16.70206604 41.96820623 -20.32543945 39.98193359 C-26.06413787 36.5866083 -29.92462408 32.92060735 -32.76293945 26.85693359 C-34.36865446 18.98893008 -33.38419002 12.78202962 -29.38793945 5.79443359 C-21.65462734 -3.11170311 -10.66008556 -5.01535649 0 0 Z " fill="#C100FF" transform="translate(411.387939453125,103.20556640625)"/>
<path d="M0 0 C5.65842186 3.35748683 9.01834623 8.14105438 11.0546875 14.30859375 C12.59768523 20.5874076 11.75760099 25.50004781 8.94140625 31.2109375 C4.19338628 38.66250425 -3.75945476 42.52186333 -11.4375 46.375 C-8.14884217 48.98823666 -4.64518832 50.98495336 -1 53.0625 C5.13269596 56.7026177 9.09852903 60.44372938 11.15625 67.375 C12.4698181 73.84179679 11.66975015 79.59551472 8.5625 85.375 C4.76499525 89.89095159 -0.34663003 94.65842706 -6.4375 95.375 C-15.59911979 96.16479481 -22.36697977 92.57611681 -30.26171875 88.2265625 C-31.23584717 87.69111816 -32.20997559 87.15567383 -33.21362305 86.60400391 C-33.94750244 86.19843262 -34.68138184 85.79286133 -35.4375 85.375 C-35.43083817 85.99616699 -35.42417633 86.61733398 -35.41731262 87.25732422 C-35.3507295 93.74652916 -35.3056042 100.23563639 -35.27270508 106.72509766 C-35.25765721 109.1440831 -35.23721412 111.56304143 -35.21118164 113.98193359 C-35.174623 117.46719063 -35.1577331 120.9520856 -35.14453125 124.4375 C-35.12904739 125.51177246 -35.11356354 126.58604492 -35.09761047 127.69287109 C-35.0960346 134.78977849 -35.55855455 140.98174602 -40.33984375 146.6171875 C-41.01144531 147.15601563 -41.68304688 147.69484375 -42.375 148.25 C-43.04402344 148.80429688 -43.71304688 149.35859375 -44.40234375 149.9296875 C-50.67674868 154.38559887 -56.90092674 154.19364234 -64.4375 153.375 C-70.12753336 151.31953059 -74.0896936 147.29824471 -77.4375 142.375 C-79.43539051 136.78848569 -79.77313421 131.67452666 -79.8515625 125.7734375 C-79.87115524 124.83920456 -79.89074799 123.90497162 -79.91093445 122.94242859 C-79.97184994 119.87837457 -80.01822446 116.81433682 -80.0625 113.75 C-80.09779776 111.6151513 -80.13319956 109.48030431 -80.16870117 107.34545898 C-80.25652549 101.79979204 -80.32753546 96.25402088 -80.39459229 90.70806885 C-80.43684952 87.42552933 -80.48746688 84.14322093 -80.54052734 80.86083984 C-80.62233905 75.69753555 -80.68136929 70.53445042 -80.72259521 65.3706665 C-80.7407289 63.42979712 -80.76540897 61.48897683 -80.79693604 59.54827881 C-80.83876798 56.83532108 -80.8543014 54.12339592 -80.86328125 51.41015625 C-80.88073898 50.62460861 -80.89819672 49.83906097 -80.91618347 49.02970886 C-80.89138422 42.58611707 -79.21947814 36.53840952 -74.88789368 31.6129303 C-71.078969 28.0242071 -66.5699353 25.67090574 -61.96484375 23.2578125 C-57.37846638 20.80971295 -52.88148859 18.21647515 -48.375 15.625 C-41.37284327 11.61219659 -34.35952598 7.62105987 -27.3125 3.6875 C-26.18509399 3.05473145 -26.18509399 3.05473145 -25.03491211 2.40917969 C-17.22809585 -1.93286957 -8.51955377 -3.91834438 0 0 Z " fill="#C100FF" transform="translate(122.4375,102.625)"/>
<path d="M0 0 C5.65272938 3.35410913 8.73712425 8.01846746 10.984375 14.0546875 C11.83391486 17.46432719 12.16891927 20.88379315 12.5625 24.375 C13.68269531 23.73691406 14.80289063 23.09882813 15.95703125 22.44140625 C17.42960923 21.60663275 18.90226979 20.77200491 20.375 19.9375 C21.11298828 19.51662109 21.85097656 19.09574219 22.61132812 18.66210938 C23.67963867 18.05786133 23.67963867 18.05786133 24.76953125 17.44140625 C25.75143433 16.8836853 25.75143433 16.8836853 26.75317383 16.31469727 C32.48027889 13.34025018 39.81193766 13.30253528 45.953125 15.05859375 C51.97117837 17.82643891 55.79359429 22.15501431 58.375 28.25 C60.3331413 34.18069232 60.26979099 39.1494925 58.0625 44.9375 C53.36661802 54.18766377 44.18056971 58.54011653 35.3125 63.125 C32.99954852 64.34419596 30.68705369 65.5642586 28.375 66.78515625 C27.2303125 67.38602051 26.085625 67.98688477 24.90625 68.60595703 C19.18895659 71.63074588 13.53749481 74.77313968 7.88183594 77.91113281 C5.77967037 79.07378304 3.67153683 80.22488331 1.5625 81.375 C0.51320313 81.96023438 -0.53609375 82.54546875 -1.6171875 83.1484375 C-4.71996729 84.49784588 -6.94120054 84.80802878 -10.3125 84.8125 C-11.27929688 84.83183594 -12.24609375 84.85117187 -13.2421875 84.87109375 C-17.51539802 84.20764908 -20.68315618 82.45368812 -24.4375 80.375 C-25.57396973 79.76724731 -25.57396973 79.76724731 -26.73339844 79.1472168 C-32.26576902 76.18392545 -37.75632386 73.1433829 -43.25390625 70.11621094 C-46.55498665 68.31074273 -49.87032403 66.53351089 -53.1875 64.7578125 C-55.4169887 63.54746801 -57.64616233 62.33654293 -59.875 61.125 C-61.44592407 60.29476318 -61.44592407 60.29476318 -63.04858398 59.44775391 C-70.37159199 55.43135516 -76.20012802 51.04429804 -79.875 43.375 C-81.35093554 35.50334377 -80.43293368 29.36116766 -76.4375 22.375 C-72.42252999 17.75112459 -67.94255202 15.02984892 -61.88671875 13.8984375 C-51.07768476 13.31747103 -42.22410416 18.51726389 -33.4375 24.375 C-33.35113281 23.6015625 -33.26476562 22.828125 -33.17578125 22.03125 C-32.13098621 14.2863473 -30.68981041 8.11329486 -24.66015625 2.8125 C-17.56113834 -2.47049007 -8.21128164 -3.77656274 0 0 Z " fill="#8800FF" transform="translate(266.4375,406.625)"/>
<path d="M0 0 C5.56780449 3.30371801 8.75571066 7.86054303 10.93814087 13.91650391 C12.20946349 18.92250373 12.04596489 24.05059737 12.07421875 29.1875 C12.09216995 30.39696289 12.11012115 31.60642578 12.12861633 32.85253906 C12.18254513 36.69332454 12.21656014 40.53398695 12.25 44.375 C12.28318834 46.98829831 12.31767939 49.60158041 12.35351562 52.21484375 C12.4382618 58.60145212 12.50668533 64.98807676 12.5625 71.375 C13.28203857 71.75720703 14.00157715 72.13941406 14.74291992 72.53320312 C54.41090389 93.64204467 54.41090389 93.64204467 58.9375 103.3125 C60.543215 111.18050351 59.55875057 117.38740398 55.5625 124.375 C51.54752999 128.99887541 47.06755202 131.72015108 41.01171875 132.8515625 C31.04453235 133.38728115 23.92972673 129.10760194 15.5625 124.375 C13.63479303 123.31387073 11.70636581 122.2540492 9.77734375 121.1953125 C-24.37469031 102.27357189 -24.37469031 102.27357189 -30.89453125 84.4921875 C-32.78219292 77.13166503 -32.63017244 69.68816274 -32.67578125 62.13671875 C-32.68788887 60.22280083 -32.68788887 60.22280083 -32.70024109 58.2702179 C-32.71403944 55.57634897 -32.72506851 52.88260059 -32.73266602 50.1887207 C-32.7437216 46.76270792 -32.7781412 43.33734609 -32.81783772 39.91156292 C-32.85048639 36.61168082 -32.85479617 33.31173769 -32.86328125 30.01171875 C-32.88078934 28.79473801 -32.89829742 27.57775726 -32.91633606 26.32389832 C-32.89625021 18.37436023 -32.23948873 10.58672993 -26.68721008 4.43608093 C-19.43305709 -2.27578029 -9.16194049 -4.18035307 0 0 Z " fill="#9C00FF" transform="translate(74.4375,278.625)"/>
<path d="M0 0 C6.61839725 3.76340236 9.64889507 6.62252601 12.34692383 13.69262695 C14.03548834 19.95988398 13.87846848 26.42707943 13.9375 32.875 C13.96395773 34.38478884 13.99172313 35.89455529 14.02075195 37.40429688 C14.08779937 41.16815317 14.13056043 44.93182951 14.16534424 48.69610596 C14.19867174 51.87966286 14.255981 55.06280523 14.30859375 58.24609375 C14.3331956 60.4348695 14.35549443 62.6236729 14.375 64.8125 C14.39481934 66.27635132 14.39481934 66.27635132 14.41503906 67.76977539 C14.42414456 76.44959468 13.37474353 84.3478032 9.3125 92.125 C8.82007813 93.09050781 8.32765625 94.05601562 7.8203125 95.05078125 C0.65329818 107.1729801 -13.46339528 113.54890624 -25.5 120.0625 C-26.7535936 120.74938278 -28.00684972 121.43688184 -29.25976562 122.125 C-32.76474996 124.0449048 -36.28618342 125.93205788 -39.8125 127.8125 C-40.77091797 128.33255615 -41.72933594 128.8526123 -42.71679688 129.38842773 C-49.92006628 133.18228451 -56.15641006 134.48595471 -64.17578125 132.11328125 C-70.22721282 129.41235982 -74.04794884 125.02220412 -76.625 118.9375 C-78.5831413 113.00680768 -78.51979099 108.0380075 -76.3125 102.25 C-71.4922537 92.77168592 -61.95341185 88.3894663 -52.875 83.6875 C-50.61565729 82.49782897 -48.35653843 81.30773273 -46.09765625 80.1171875 C-45.10644775 79.60140137 -44.11523926 79.08561523 -43.09399414 78.55419922 C-38.96782655 76.36417767 -34.88932535 74.09274316 -30.8125 71.8125 C-30.82138245 71.13091324 -30.83026489 70.44932648 -30.8394165 69.74708557 C-30.92821013 62.62517723 -30.98836719 55.50342729 -31.03222656 48.38110352 C-31.05002053 45.72616314 -31.0795388 43.07209468 -31.11425781 40.41723633 C-31.16301626 36.59184916 -31.18552497 32.7670485 -31.203125 28.94140625 C-31.22377014 27.76292618 -31.24441528 26.58444611 -31.26568604 25.37025452 C-31.2677704 17.64000581 -30.52871774 10.79626753 -25.06207275 4.93605042 C-17.80475435 -1.77915489 -9.35886223 -2.91505545 0 0 Z " fill="#9C00FF" transform="translate(455.8125,278.1875)"/>
</svg>
