<?xml version="1.0" encoding="UTF-8"?>
<svg version="1.1" xmlns="http://www.w3.org/2000/svg" width="512" height="512">
<path d="M0 0 C3.677211 1.77617666 6.99605083 4.02847985 10.375 6.3125 C11.83909302 7.27373779 11.83909302 7.27373779 13.33276367 8.25439453 C15.31214934 9.55498098 17.28739067 10.8618981 19.25830078 12.17529297 C22.91960069 14.61202988 26.6149293 16.99387066 30.3125 19.375 C31.68375361 20.2640764 33.05484163 21.15340825 34.42578125 22.04296875 C44.25452483 28.40739306 54.13419434 34.69326616 64 41 C91.74297611 58.7347469 91.74297611 58.7347469 99.79150391 63.97631836 C103.63431133 66.47882031 107.49645267 68.94606507 111.37890625 71.38671875 C112.29244873 71.96655518 113.20599121 72.5463916 114.1472168 73.14379883 C115.9231063 74.27087593 117.70429384 75.38966207 119.49145508 76.4987793 C120.29607178 77.012229 121.10068848 77.52567871 121.9296875 78.0546875 C122.64366699 78.50312012 123.35764648 78.95155273 124.09326172 79.41357422 C127.16637674 81.97043739 128.80389588 84.28409937 129.26927567 88.35614777 C129.37024402 91.40527156 129.37063223 94.44076537 129.34057617 97.49145508 C129.34101425 98.65286011 129.34145233 99.81426514 129.34190369 101.01086426 C129.33981474 104.84725796 129.31647779 108.68321394 129.29296875 112.51953125 C129.28737317 115.18040202 129.28295532 117.84124859 129.28010559 120.50212097 C129.27079006 126.78836399 129.24618307 133.07445004 129.21605712 139.36062402 C129.18249769 146.51898545 129.16602324 153.67735447 129.15097082 160.83577502 C129.119633 175.55726353 129.06688214 190.27862903 129 205 C130.16689362 205.45323135 130.16689362 205.45323135 131.35736084 205.9156189 C134.03637781 207.01492728 136.23008818 208.31552224 138.640625 209.9140625 C139.53313965 210.50179443 140.4256543 211.08952637 141.34521484 211.69506836 C142.30379395 212.3319458 143.26237305 212.96882324 144.25 213.625 C146.33009982 214.994446 148.41085129 216.3629026 150.4921875 217.73046875 C151.56694336 218.4373584 152.64169922 219.14424805 153.74902344 219.87255859 C158.93356088 223.26532364 164.15267263 226.60330188 169.375 229.9375 C170.40657227 230.59661377 171.43814453 231.25572754 172.50097656 231.93481445 C174.60298113 233.27750819 176.70519546 234.61987361 178.80761719 235.96191406 C184.20704923 239.40902776 189.60383159 242.86028015 195 246.3125 C196.05171387 246.98531006 197.10342773 247.65812012 198.18701172 248.35131836 C204.61859841 252.46836608 211.04059397 256.5995642 217.44213867 260.76318359 C221.76209601 263.56818691 226.10402468 266.33636384 230.45703125 269.08984375 C232.17387719 270.178703 233.89044925 271.2679927 235.60693359 272.35742188 C237.27726648 273.41518779 238.95109883 274.4674212 240.625 275.51953125 C241.65238281 276.17179687 242.67976563 276.8240625 243.73828125 277.49609375 C245.11560425 278.36512329 245.11560425 278.36512329 246.52075195 279.25170898 C252.72456174 283.6264487 252.72456174 283.6264487 253.50615788 287.5241003 C253.51036826 288.95788698 253.51036826 288.95788698 253.5146637 290.42063904 C253.52738815 291.52116608 253.54011261 292.62169312 253.55322266 293.75556946 C253.54669678 294.95827988 253.5401709 296.1609903 253.53344727 297.40014648 C253.54206284 298.67041687 253.55067841 299.94068726 253.55955505 301.24945068 C253.58205626 304.73097993 253.57910779 308.21205475 253.57023358 311.69362903 C253.5651229 314.60122387 253.57241693 317.50873337 253.57970566 320.41631943 C253.5967072 327.27640147 253.5931367 334.1362611 253.57641602 340.99633789 C253.55949541 348.0708857 253.57532715 355.14481647 253.6076389 362.21929687 C253.63434027 368.29588491 253.64160936 374.37228093 253.63312382 380.44892174 C253.62819593 384.07706874 253.630402 387.70484451 253.65091133 391.33294487 C253.67268927 395.37917433 253.65386409 399.42423505 253.63110352 403.47045898 C253.64279572 404.67114517 253.65448792 405.87183136 253.66653442 407.10890198 C253.57332342 415.23632313 253.57332342 415.23632313 250.62260437 419.16673279 C249.75714493 419.77171097 248.89168549 420.37668915 248 421 C247.14438477 421.61439941 246.28876953 422.22879883 245.40722656 422.86181641 C244.49424805 423.43593262 243.58126953 424.01004883 242.640625 424.6015625 C241.61646484 425.25060547 240.59230469 425.89964844 239.53710938 426.56835938 C238.45236328 427.24705078 237.36761719 427.92574219 236.25 428.625 C235.11217759 429.34368495 233.97481196 430.06309357 232.83789062 430.78320312 C230.58286366 432.21104915 228.32616867 433.63611163 226.06835938 435.05957031 C222.19290224 437.51040842 218.34311633 439.998886 214.5 442.5 C202.27738488 450.43025656 189.98682989 458.25515298 177.7109375 466.10253906 C163.30020358 475.30811439 163.30020358 475.30811439 148.92553711 484.56982422 C147.54364732 485.46426057 146.16039869 486.35660191 144.77563477 487.24658203 C141.52493239 489.33962686 138.30866982 491.46664209 135.1328125 493.671875 C134.19731567 494.30814819 134.19731567 494.30814819 133.24291992 494.95727539 C131.56860386 496.098165 129.90677471 497.25732147 128.24609375 498.41796875 C124.30314212 500.33962388 121.24661367 500.98190088 117 500 C113.44728915 498.34403381 110.29247541 496.20985939 107.0625 494 C105.11228758 492.71177256 103.16175398 491.42403125 101.2109375 490.13671875 C100.19741211 489.45915527 99.18388672 488.7815918 98.13964844 488.08349609 C92.86944498 484.58614646 87.52381811 481.20771055 82.1875 477.8125 C74.6140595 472.96843945 67.05505468 468.1028361 59.51245117 463.2109375 C50.14945617 457.14417309 40.74181389 451.14685144 31.34179688 445.13769531 C27.89840843 442.93501346 24.45677651 440.72961119 21.015625 438.5234375 C19.87110736 437.78993644 18.72657628 437.05645636 17.58203125 436.32299805 C15.40721343 434.92915782 13.23271932 433.53481234 11.05859375 432.13989258 C10.07503906 431.50978271 9.09148437 430.87967285 8.078125 430.23046875 C7.21606445 429.67770264 6.35400391 429.12493652 5.46582031 428.55541992 C4.65209961 428.04213135 3.83837891 427.52884277 3 427 C2.12996338 426.42725342 1.25992676 425.85450684 0.36352539 425.2644043 C-1.99349653 423.68673152 -1.99349653 423.68673152 -4.89453125 424.5390625 C-8.397872 426.187175 -11.52544661 428.16380094 -14.6875 430.375 C-16.01547534 431.28207695 -17.34497679 432.18692261 -18.67578125 433.08984375 C-19.37654785 433.56534668 -20.07731445 434.04084961 -20.79931641 434.53076172 C-24.6101934 437.07501042 -28.4930507 439.50363889 -32.375 441.9375 C-38.31694775 445.67040643 -44.24016373 449.4276397 -50.125 453.25 C-60.28414591 459.84584538 -70.49254764 466.3644063 -80.69775391 472.88867188 C-85.11774822 475.71464488 -89.53711595 478.54159366 -93.95532227 481.37036133 C-96.08839754 482.73456923 -98.22297176 484.09643657 -100.35913086 485.45581055 C-104.74534494 488.25060675 -109.11594205 491.05202177 -113.3984375 494.00390625 C-114.03241455 494.43453369 -114.6663916 494.86516113 -115.31958008 495.30883789 C-116.90115265 496.38973053 -118.46899492 497.49064557 -120.03515625 498.59375 C-123.91641063 500.43466117 -126.86023668 501.02806233 -131 500 C-135.22126119 497.91583081 -139.04917665 495.33174909 -142.9375 492.6875 C-144.06001237 491.94352065 -145.18372499 491.20134925 -146.30859375 490.4609375 C-148.53864295 488.98980241 -150.76068954 487.5085226 -152.97998047 486.02099609 C-156.79218024 483.46987324 -160.64181671 480.98070902 -164.5 478.5 C-165.84392924 477.6291828 -167.18767373 476.75808044 -168.53125 475.88671875 C-178.32683082 469.54879823 -188.16978081 463.28398513 -198 457 C-224.72144081 439.91827136 -224.72144081 439.91827136 -235.97265625 432.60546875 C-238.88554891 430.71444055 -241.81245054 428.84694741 -244.74609375 426.98828125 C-245.92268555 426.23865112 -245.92268555 426.23865112 -247.12304688 425.47387695 C-248.62773715 424.5156686 -250.13540406 423.56211302 -251.64648438 422.61401367 C-252.31873047 422.18451416 -252.99097656 421.75501465 -253.68359375 421.3125 C-254.27712646 420.93738281 -254.87065918 420.56226563 -255.48217773 420.17578125 C-257 419 -257 419 -259 416 C-259.26564884 413.60174084 -259.26564884 413.60174084 -259.28761292 410.7063446 C-259.30047836 409.60863739 -259.31334381 408.51093018 -259.32659912 407.37995911 C-259.33040588 406.17522446 -259.33421265 404.97048981 -259.33813477 403.72924805 C-259.34967087 402.46072998 -259.36120697 401.19221191 -259.37309265 399.88525391 C-259.40360104 396.40374821 -259.42061667 392.92230862 -259.43330884 389.44069648 C-259.44139465 387.26483961 -259.45157526 385.08900173 -259.46232414 382.91315651 C-259.49504399 376.10334224 -259.5189439 369.29357408 -259.531138 362.48369187 C-259.54539156 354.62636274 -259.58925878 346.76993205 -259.65863949 338.91290063 C-259.71043779 332.83720014 -259.73531245 326.76175501 -259.73996013 320.68583709 C-259.743357 317.05796024 -259.75819136 313.43099192 -259.80124092 309.80335045 C-259.84844589 305.75464721 -259.83987711 301.70789158 -259.82641602 297.65893555 C-259.85945328 295.86094261 -259.85945328 295.86094261 -259.89315796 294.02662659 C-259.80322477 286.0763876 -259.80322477 286.0763876 -257.46601486 282.94433308 C-255.71272124 281.41614791 -253.99594237 280.18625994 -252 279 C-250.87682373 278.20396362 -250.87682373 278.20396362 -249.73095703 277.3918457 C-248.75425049 276.7898938 -248.75425049 276.7898938 -247.7578125 276.17578125 C-247.01128418 275.71075195 -246.26475586 275.24572266 -245.49560547 274.76660156 C-244.71330566 274.28674805 -243.93100586 273.80689453 -243.125 273.3125 C-241.42136347 272.25212349 -239.71824787 271.19090961 -238.015625 270.12890625 C-237.16806641 269.60184082 -236.32050781 269.07477539 -235.44726562 268.53173828 C-231.89766984 266.31005393 -228.38457872 264.03418874 -224.875 261.75 C-217.93447007 257.24286243 -210.97153933 252.77151673 -204 248.3125 C-202.41614502 247.29941772 -202.41614502 247.29941772 -200.80029297 246.26586914 C-196.43750513 243.47588244 -192.07420952 240.68669035 -187.7109375 237.89746094 C-172.18351508 227.97319185 -172.18351508 227.97319185 -156.6875 218 C-155.76614258 217.40578247 -155.76614258 217.40578247 -154.82617188 216.79956055 C-153.62680875 216.02316981 -152.44350905 215.2213209 -151.27879333 214.39385986 C-149 213 -149 213 -146.02223206 211.94300842 C-142.17636494 210.23914603 -139.23616097 208.59094952 -137 205 C-134.67696934 196.35263206 -135.66702739 186.85270307 -135.890625 177.99609375 C-135.91089567 175.31125335 -135.92566302 172.62699877 -135.93231201 169.94215393 C-135.96363184 162.1613653 -136.08499362 154.38323607 -136.21491241 146.60357666 C-136.37536604 136.6982253 -136.49060594 126.79281366 -136.53369689 116.88624436 C-136.55711553 112.26784874 -136.64744548 107.65343139 -136.7510376 103.03623962 C-136.77264686 100.61589307 -136.79226459 98.19552764 -136.80957031 95.77514648 C-136.86696632 94.13459038 -136.86696632 94.13459038 -136.92552185 92.46089172 C-136.91069066 85.17859743 -136.91069066 85.17859743 -134.31143951 81.81469917 C-132.28758193 80.00340799 -130.27573171 78.47883491 -128 77 C-126.89877493 76.27102335 -126.89877493 76.27102335 -125.77530289 75.52731991 C-123.69394085 74.18793822 -121.57595069 72.93352084 -119.4375 71.6875 C-113.78242621 68.31264185 -108.20225963 64.88169954 -102.75 61.1875 C-93.95883638 55.24945236 -84.98579292 49.60266017 -76.02685547 43.92236328 C-70.73945413 40.56432181 -65.46311346 37.18902064 -60.1875 33.8125 C-59.12700439 33.13380859 -58.06650879 32.45511719 -56.97387695 31.75585938 C-51.07611408 27.97850125 -45.18787328 24.18707455 -39.3125 20.375 C-32.58292009 16.00957263 -25.82737131 11.6855247 -19.0625 7.375 C-18.09546143 6.75802246 -17.12842285 6.14104492 -16.13208008 5.50537109 C-15.23384521 4.93383301 -14.33561035 4.36229492 -13.41015625 3.7734375 C-12.60715088 3.26216309 -11.80414551 2.75088867 -10.97680664 2.22412109 C-7.28205885 -0.06382079 -4.30483339 -0.85682552 0 0 Z " fill="#010101" transform="translate(259,6)"/>
<path d="M0 0 C1.91503906 0.96118164 1.91503906 0.96118164 3.765625 2.16015625 C4.83417725 2.84380249 4.83417725 2.84380249 5.92431641 3.54125977 C6.69179199 4.04326904 7.45926758 4.54527832 8.25 5.0625 C9.06774902 5.58835693 9.88549805 6.11421387 10.72802734 6.65600586 C12.52279471 7.81059611 14.31550798 8.96838394 16.10644531 10.12890625 C19.13419676 12.08677725 22.17122338 14.02950841 25.2109375 15.96875 C35.05649976 22.25066888 44.8835046 28.56033893 54.68017578 34.91821289 C60.4322623 38.64559278 66.21466105 42.32450324 72 46 C74.77597262 47.76619901 77.5516506 49.53285968 80.32714844 51.29980469 C82.07433407 52.41118583 83.82234715 53.52126752 85.57128906 54.62988281 C87.92567283 56.12338388 90.27581839 57.62333399 92.625 59.125 C93.31722656 59.56199219 94.00945312 59.99898438 94.72265625 60.44921875 C98.20794996 62.68625838 101.19280317 64.90780857 104 68 C97.0137952 73.10046828 89.76241401 77.72169686 82.43945312 82.31787109 C77.16244394 85.63084215 71.91136519 88.97889237 66.6875 92.375 C60.14965472 96.62254692 53.58144455 100.82034432 47 105 C40.44378624 109.1652764 33.89639922 113.34290827 27.375 117.5625 C26.70879639 117.99079102 26.04259277 118.41908203 25.35620117 118.86035156 C21.43689029 121.38784971 17.56417998 123.97244233 13.71484375 126.60546875 C12.81652832 127.21124756 11.91821289 127.81702637 10.99267578 128.44116211 C9.24317265 129.62189346 7.50272566 130.81618812 5.77294922 132.02563477 C-0.10620544 135.96591927 -0.10620544 135.96591927 -4.17578125 136.12109375 C-7.61471608 134.75598407 -10.50823737 132.94977003 -13.5 130.8125 C-14.82381489 129.89856569 -16.1494517 128.98726674 -17.4765625 128.078125 C-18.55599121 127.3365918 -18.55599121 127.3365918 -19.65722656 126.58007812 C-24.00373153 123.6485879 -28.44389559 120.86372894 -32.875 118.0625 C-39.37235415 113.94417876 -45.86074583 109.81444047 -52.3125 105.625 C-59.35562417 101.05289149 -66.42509725 96.52276165 -73.5 92 C-88.60109462 82.34098724 -88.60109462 82.34098724 -95.625 77.8125 C-96.28048828 77.39162109 -96.93597656 76.97074219 -97.61132812 76.53710938 C-101.83209878 73.81018216 -105.92891983 70.94603873 -110 68 C-106.12695732 63.7652724 -102.06207266 61.00728039 -97.125 58.125 C-89.9560361 53.84194489 -82.91759216 49.39677114 -75.9375 44.8125 C-67.86234395 39.51621919 -59.7627654 34.26214064 -51.625 29.0625 C-50.59818115 28.40628662 -49.5713623 27.75007324 -48.51342773 27.07397461 C-45.34273169 25.04861617 -42.17141339 23.02423496 -39 21 C-35.59630434 18.82693199 -32.19300235 16.65325028 -28.79052734 14.47827148 C-26.6637811 13.118877 -24.5365367 11.76026141 -22.40869141 10.40258789 C-21.43851074 9.78246826 -20.46833008 9.16234863 -19.46875 8.5234375 C-18.54320312 7.93530273 -17.61765625 7.34716797 -16.6640625 6.74121094 C-14.90366178 5.59062645 -13.16795302 4.4012462 -11.4609375 3.17285156 C-10.67976563 2.61307617 -9.89859375 2.05330078 -9.09375 1.4765625 C-8.08344727 0.72366943 -8.08344727 0.72366943 -7.05273438 -0.04443359 C-4.2846819 -1.33298704 -2.8729448 -0.91512174 0 0 Z " fill="#C3C2C2" transform="translate(383,228)"/>
<path d="M0 0 C4.05570728 1.12900812 7.14963023 3.12349236 10.58203125 5.47265625 C12.09821241 6.48159058 13.61518911 7.4893301 15.1328125 8.49609375 C15.95475098 9.04491211 16.77668945 9.59373047 17.62353516 10.15917969 C22.46737726 13.36457142 27.37236849 16.47460736 32.26953125 19.59765625 C34.41549847 20.96984273 36.56132997 22.34224147 38.70703125 23.71484375 C40.8944974 25.11333419 43.08199756 26.51177144 45.26953125 27.91015625 C59.29276043 36.87453049 73.31219715 45.8434326 87.26953125 54.91015625 C88.14673828 55.47992188 89.02394531 56.0496875 89.92773438 56.63671875 C95.70953163 60.39268932 101.49007633 64.15058253 107.26953125 67.91015625 C104.02250636 70.57605812 100.73694512 72.98636703 97.19140625 75.23828125 C96.20785156 75.86516846 95.22429687 76.49205566 94.2109375 77.13793945 C93.15777344 77.805271 92.10460937 78.47260254 91.01953125 79.16015625 C89.34007108 80.22963078 87.66061361 81.29910958 85.98132324 82.36885071 C84.23876108 83.4783934 82.49542483 84.58671139 80.75195312 85.69482422 C75.25055118 89.19273568 69.76024079 92.70799413 64.26953125 96.22265625 C63.21926758 96.89458008 62.16900391 97.56650391 61.08691406 98.25878906 C54.65047715 102.37867667 48.22676419 106.51741207 41.81640625 110.67773438 C34.26314482 115.57418001 26.67376271 120.41431737 19.08398438 125.25390625 C18.07271484 125.89972656 17.06144531 126.54554688 16.01953125 127.2109375 C15.04371094 127.83049316 14.06789063 128.45004883 13.0625 129.08837891 C11.24706776 130.27253585 9.45570537 131.49474627 7.6953125 132.75927734 C6.91542969 133.31824707 6.13554687 133.8772168 5.33203125 134.453125 C4.32849609 135.20178833 4.32849609 135.20178833 3.3046875 135.96557617 C0.55821348 137.24030122 -0.88238465 136.80946175 -3.73046875 135.91015625 C-6.22587451 134.45450289 -8.59215225 132.96200249 -10.98046875 131.34765625 C-12.49541913 130.34533378 -14.01109012 129.34409991 -15.52734375 128.34375 C-16.35427734 127.7957373 -17.18121094 127.24772461 -18.03320312 126.68310547 C-23.06632093 123.37476898 -28.15237571 120.14884349 -33.23046875 116.91015625 C-40.30602117 112.38841705 -47.37473427 107.85708038 -54.41796875 103.28515625 C-60.83171824 99.12250707 -67.27631733 95.00985535 -73.73046875 90.91015625 C-80.57954149 86.55927432 -87.41834749 82.1937099 -94.23046875 77.78515625 C-94.9059375 77.34816406 -95.58140625 76.91117187 -96.27734375 76.4609375 C-100.11476478 73.97285354 -103.93055479 71.45516035 -107.73046875 68.91015625 C-103.74639878 64.52452982 -99.44846292 61.70438267 -94.35546875 58.72265625 C-88.63945814 55.30467528 -82.9942401 51.83375941 -77.48046875 48.09765625 C-68.6893201 42.15958736 -59.71626082 36.51281588 -50.75732422 30.83251953 C-2.10114803 -0.06913649 -2.10114803 -0.06913649 0 0 Z " fill="#C3C2C2" transform="translate(255.73046875,26.08984375)"/>
<path d="M0 0 C2.077814 0.82387711 3.88388071 1.769849 5.78833008 2.94042969 C6.50988281 3.38169189 7.23143555 3.8229541 7.97485352 4.27758789 C8.74216797 4.75542725 9.50948242 5.2332666 10.30004883 5.72558594 C11.10474609 6.2221167 11.90944336 6.71864746 12.73852539 7.23022461 C18.24866748 10.65093214 23.66698413 14.19041854 29.04199219 17.81860352 C37.23886141 23.33689681 45.61610569 28.57494619 53.96069336 33.86572266 C59.24809474 37.22376415 64.52442812 40.59907655 69.80004883 43.97558594 C70.85039307 44.64775146 71.9007373 45.31991699 72.98291016 46.01245117 C79.83995616 50.40407867 86.68604973 54.81220118 93.51220703 59.25170898 C97.97238592 62.14862306 102.46972792 64.98195378 106.98754883 67.78808594 C103.00347885 72.17371237 98.705543 74.99385952 93.61254883 77.97558594 C87.89655299 81.39355808 82.25116429 84.8642644 76.73754883 88.60058594 C70.59698235 92.75134044 64.37218233 96.75678026 58.11254883 100.72558594 C51.61578635 104.84485204 45.12678044 108.97358797 38.67504883 113.16308594 C30.23426774 118.64332574 21.75576964 124.06425259 13.27539062 129.48291016 C12.24454346 130.14178223 11.21369629 130.8006543 10.15161133 131.47949219 C9.22815918 132.06931885 8.30470703 132.65914551 7.35327148 133.2668457 C5.55386851 134.4239231 3.76756854 135.60140613 1.98754883 136.78808594 C-2.78509085 136.57114777 -6.37202857 133.94174122 -10.26245117 131.41308594 C-11.31734741 130.74043701 -11.31734741 130.74043701 -12.39355469 130.05419922 C-14.60535182 128.64051369 -16.80958571 127.21564121 -19.01245117 125.78808594 C-20.32877987 124.93900736 -21.64518398 124.09004569 -22.96166992 123.24121094 C-25.71950545 121.4600804 -28.47390044 119.6737285 -31.22729492 117.88574219 C-36.80730901 114.26720195 -42.4097102 110.68379955 -48.01245117 107.10058594 C-49.06811279 106.42535889 -50.12377441 105.75013184 -51.21142578 105.05444336 C-54.47821919 102.96532097 -57.7452861 100.87662703 -61.01245117 98.78808594 C-68.40227419 94.06412841 -75.79014211 89.33716764 -83.17407227 84.60400391 C-85.85248099 82.89043053 -88.53535414 81.18408727 -91.21948242 79.47949219 C-92.75473697 78.49917737 -94.28990013 77.5187194 -95.82495117 76.53808594 C-96.84685547 75.89359497 -96.84685547 75.89359497 -97.8894043 75.23608398 C-101.31452301 73.03971335 -104.26903834 70.8010028 -107.01245117 67.78808594 C-100.20829384 62.82052634 -93.15676733 58.30567593 -86.02539062 53.82836914 C-79.12390333 49.49512392 -72.25006693 45.12012706 -65.38745117 40.72558594 C-64.31358154 40.03795166 -63.23971191 39.35031738 -62.13330078 38.6418457 C-55.59737344 34.45307182 -49.07263322 30.24758362 -42.56079102 26.02148438 C-35.00708349 21.12464856 -27.41717703 16.28424007 -19.8269043 11.44433594 C-18.81563477 10.79851562 -17.80436523 10.15269531 -16.76245117 9.48730469 C-15.3006543 8.55797119 -15.3006543 8.55797119 -13.80932617 7.60986328 C-11.98412126 6.42099465 -10.18032162 5.19840132 -8.40307617 3.93896484 C-7.61416992 3.37999512 -6.82526367 2.82102539 -6.01245117 2.24511719 C-5.33182617 1.7460083 -4.65120117 1.24689941 -3.94995117 0.73266602 C-2.01245117 -0.21191406 -2.01245117 -0.21191406 0 0 Z " fill="#C2C1C1" transform="translate(132.012451171875,227.2119140625)"/>
<path d="M0 0 C13.35641548 7.79124236 13.35641548 7.79124236 18.875 11.5625 C24.9768881 15.68774276 31.15497972 19.68032717 37.375 23.625 C38.29740479 24.21007324 39.21980957 24.79514648 40.17016602 25.39794922 C42.10443267 26.62460558 44.03876032 27.85116576 45.97314453 29.07763672 C51.26054605 32.4356783 56.53685736 35.81102467 61.8125 39.1875 C62.86864502 39.86329102 63.92479004 40.53908203 65.01293945 41.23535156 C71.63164925 45.47388838 78.24163911 49.72554931 84.8215332 54.02416992 C85.40765381 54.40549072 85.99377441 54.78681152 86.59765625 55.1796875 C87.19201477 55.59213211 87.78637329 56.00457672 88.39874268 56.42951965 C90.56459711 57.73713032 92.55569755 58.67539043 94.87498474 59.64416504 C100.14830399 62.05542798 105.67016614 64.61910615 107.90088081 70.29034805 C109.2911122 77.21836441 108.83383799 84.26982657 108.5625 91.2890625 C108.53262534 93.56155403 108.5098653 95.83414922 108.49389648 98.10678101 C108.43304847 104.06411596 108.27613886 110.01512244 108.09863281 115.9699707 C107.93440006 122.05593232 107.86176659 128.14292591 107.78125 134.23046875 C107.61009226 146.15641382 107.33735111 158.07767907 107 170 C102.58538459 168.31131069 98.72535571 166.09559958 94.75 163.5625 C94.04673584 163.1185791 93.34347168 162.6746582 92.61889648 162.21728516 C87.04559024 158.68968832 81.50545756 155.11074944 75.97363281 151.51855469 C69.66604534 147.42326697 63.33554675 143.36437701 57 139.3125 C55.41650757 138.29965942 55.41650757 138.29965942 53.80102539 137.26635742 C50.53423199 135.17723504 47.26716507 133.08854109 44 131 C39.66632955 128.22969345 35.33294419 125.45894234 31 122.6875 C29.96544678 122.02588867 28.93089355 121.36427734 27.86499023 120.68261719 C20.87537689 116.20935398 13.90016859 111.71446666 6.94726562 107.18432617 C3.55104494 104.95977497 3.55104494 104.95977497 0 103 C0 69.01 0 35.02 0 0 Z " fill="#EBEBE6" transform="translate(17,311)"/>
<path d="M0 0 C0.41798089 13.23832579 0.73732666 26.47507154 0.93261909 39.71866322 C1.02638155 45.86942647 1.1533947 52.01566197 1.35791016 58.16381836 C1.55424359 64.10352739 1.66125174 70.03889952 1.70779037 75.98160362 C1.74092552 78.24236059 1.8056486 80.50289242 1.90314102 82.76178932 C2.61682094 99.99104362 2.61682094 99.99104362 -1.73279572 104.99245834 C-6.00537255 108.47639602 -10.70327465 110.78019942 -15.7413826 112.95131493 C-19.23359585 114.57276348 -22.30101033 116.72306228 -25.4375 118.9375 C-31.01479631 122.71615513 -36.67079202 126.3535213 -42.375 129.9375 C-48.31656212 133.67102917 -54.2401847 137.42758656 -60.125 141.25 C-67.3564659 145.94574575 -74.61194358 150.60326907 -81.875 155.25 C-82.90898926 155.91161133 -83.94297852 156.57322266 -85.00830078 157.25488281 C-87.01464535 158.53799146 -89.02194649 159.81960578 -91.03027344 161.09960938 C-93.07018934 162.40499456 -95.10441658 163.71929905 -97.13378906 165.04101562 C-98.1234668 165.68232422 -99.11314453 166.32363281 -100.1328125 166.984375 C-101.0211377 167.56413086 -101.90946289 168.14388672 -102.82470703 168.74121094 C-105 170 -105 170 -107 170 C-107.41800038 156.89207037 -107.73733569 143.78573684 -107.93261909 130.67248821 C-108.02637789 124.58223508 -108.15338234 118.49655545 -108.35791016 112.40893555 C-108.55425967 106.52757682 -108.66125449 100.6505984 -108.70779037 94.76621437 C-108.74092292 92.52777913 -108.80564124 90.28957101 -108.90314102 88.05301476 C-109.61691156 70.9931033 -109.61691156 70.9931033 -105.26418304 66.01465225 C-100.9870435 62.53667247 -96.28672704 60.22111424 -91.24947929 58.04617977 C-87.8113656 56.44719417 -84.85196742 54.36169162 -81.75 52.1875 C-81.07727051 51.73479736 -80.40454102 51.28209473 -79.71142578 50.81567383 C-79.1698584 50.44982178 -78.62829102 50.08396973 -78.0703125 49.70703125 C-70.48770513 44.62861498 -62.73374924 39.80881828 -55.02685547 34.92236328 C-28.55877104 18.21389051 -28.55877104 18.21389051 -2.46875 0.92578125 C-1 0 -1 0 0 0 Z " fill="#A9A8A8" transform="translate(495,311)"/>
<path d="M0 0 C1.72566875 0.92888545 3.44981453 1.86060049 5.17333984 2.79345703 C6.61379166 3.57126022 6.61379166 3.57126022 8.08334351 4.36477661 C12.74513233 6.97840839 17.17534674 9.91909684 21.625 12.875 C23.63997631 14.20150672 25.65562584 15.52699127 27.671875 16.8515625 C28.70763672 17.53250977 29.74339844 18.21345703 30.81054688 18.91503906 C36.1403367 22.39914846 41.50736233 25.82459695 46.875 29.25 C53.82566466 33.68833152 60.77063751 38.13415119 67.6875 42.625 C75.17624951 47.48704332 82.70875569 52.27924928 90.25268555 57.05517578 C91.12836182 57.61060059 92.00403809 58.16602539 92.90625 58.73828125 C93.67259766 59.22337158 94.43894531 59.70846191 95.22851562 60.20825195 C96.14310547 60.79952881 97.05769531 61.39080566 98 62 C98.72714927 62.37540074 99.45429853 62.75080149 100.20348263 63.13757801 C106.49761246 66.67556836 106.49761246 66.67556836 107.81934547 70.16001987 C108.10867269 72.79626092 108.11466737 75.30197038 108.02172852 77.95263672 C108.02369987 79.4316169 108.02369987 79.4316169 108.02571106 80.94047546 C108.019457 84.18871468 107.94954546 87.43226403 107.87890625 90.6796875 C107.86211406 92.93553122 107.84930578 95.19140783 107.84031677 97.44729614 C107.80600116 103.37637424 107.7176354 109.30345859 107.61798096 115.23175049 C107.52580811 121.28443428 107.4847863 127.33744123 107.43945312 133.390625 C107.34301522 145.26129125 107.1894697 157.13047966 107 169 C103.88471563 167.77913668 101.0550977 166.54551497 98.234375 164.7421875 C97.52200684 164.289646 96.80963867 163.83710449 96.07568359 163.37084961 C95.30820801 162.87721924 94.54073242 162.38358887 93.75 161.875 C92.93225098 161.35365479 92.11450195 160.83230957 91.27197266 160.29516602 C89.47792186 159.15038597 87.68517486 158.00356079 85.89355469 156.85498047 C82.8612548 154.91105417 79.82542508 152.97272984 76.7890625 151.03515625 C67.67607148 145.21583268 58.57220689 139.38273284 49.5 133.5 C42.49334006 128.95701979 35.46864656 124.44248612 28.4375 119.9375 C26.94863281 118.98230469 26.94863281 118.98230469 25.4296875 118.0078125 C24.44097656 117.37488281 23.45226562 116.74195313 22.43359375 116.08984375 C21.48153549 115.45383743 20.52947723 114.81783112 19.54856873 114.16255188 C17.08246429 112.57958308 14.62548961 111.3687265 11.926651 110.2318573 C6.70188697 107.85105822 1.30268003 105.33685549 -0.89195442 99.71523094 C-2.28544787 92.78269853 -1.83402855 85.73510297 -1.5625 78.7109375 C-1.53262534 76.43844597 -1.5098653 74.16585078 -1.49389648 71.89321899 C-1.43304847 65.93588404 -1.27613886 59.98487756 -1.09863281 54.0300293 C-0.93440006 47.94406768 -0.86176659 41.85707409 -0.78125 35.76953125 C-0.61009226 23.84358618 -0.33735111 11.92232093 0 0 Z " fill="#EBEBE6" transform="translate(140,110)"/>
<path d="M0 0 C0.44141843 13.09051408 0.77839228 26.17924334 0.98443127 39.27569962 C1.0833601 45.35835899 1.21733622 51.43590805 1.43334961 57.515625 C1.64076564 63.39055641 1.75357553 69.26059717 1.80266762 75.13890839 C1.83761435 77.37380786 1.90587812 79.60845663 2.00887108 81.84125519 C2.76241967 98.86431714 2.76241967 98.86431714 -1.8471756 104.09676933 C-6.38626985 107.83878039 -11.37822944 110.46409539 -16.70516396 112.90721703 C-19.91700193 114.43666915 -22.77009296 116.31020712 -25.7265625 118.28515625 C-26.70560547 118.91164063 -27.68464844 119.538125 -28.69335938 120.18359375 C-30.14452148 121.11365234 -30.14452148 121.11365234 -31.625 122.0625 C-32.68783203 122.743125 -33.75066406 123.42375 -34.84570312 124.125 C-40.73992805 127.90215928 -46.62619127 131.69117944 -52.5 135.5 C-63.63300659 142.719102 -74.81311126 149.8647615 -86 157 C-86.97614258 157.62277832 -87.95228516 158.24555664 -88.95800781 158.88720703 C-91.63683055 160.59439054 -94.31787459 162.29801122 -97 164 C-97.80099121 164.51038818 -98.60198242 165.02077637 -99.42724609 165.54663086 C-104.8840179 169 -104.8840179 169 -106 169 C-106.34818589 155.87441848 -106.61438232 142.74994188 -106.77718258 129.62067604 C-106.85533963 123.52328565 -106.96124741 117.42906296 -107.1315918 111.33349609 C-107.29508957 105.44579595 -107.38436012 99.56113266 -107.42315865 93.67133713 C-107.45078834 91.42949979 -107.50475308 89.18782146 -107.58595085 86.9472847 C-108.18086734 69.84462281 -108.18086734 69.84462281 -104.53707886 65.09183311 C-101.02353219 61.88758964 -97.11112421 59.74774667 -92.7886467 57.82217216 C-90.36056301 56.70607539 -88.18926159 55.27587462 -85.9765625 53.78515625 C-84.5271156 52.87588998 -83.07660254 51.96832092 -81.625 51.0625 C-75.68231222 47.33079406 -69.75975324 43.57244654 -63.875 39.75 C-56.76983034 35.13546885 -49.63853013 30.56274432 -42.5 26 C-35.19616768 21.33110148 -27.89909516 16.65260835 -20.625 11.9375 C-19.29297648 11.07550889 -17.9609456 10.21352915 -16.62890625 9.3515625 C-14.27922489 7.83056064 -11.93343303 6.30380473 -9.58984375 4.7734375 C-8.59082031 4.12632812 -7.59179688 3.47921875 -6.5625 2.8125 C-5.71816406 2.26207031 -4.87382812 1.71164062 -4.00390625 1.14453125 C-2 0 -2 0 0 0 Z " fill="#AAA9A9" transform="translate(247,312)"/>
<path d="M0 0 C3.22687193 1.2620781 6.12431029 2.5683768 9.046875 4.43359375 C9.79984863 4.91151367 10.55282227 5.38943359 11.32861328 5.88183594 C12.52719971 6.65188965 12.52719971 6.65188965 13.75 7.4375 C14.5941748 7.97536133 15.43834961 8.51322266 16.30810547 9.06738281 C22.2759921 12.87600599 28.22331492 16.71671167 34.16113281 20.57202148 C40.58882507 24.7438268 47.04338717 28.87313262 53.5 33 C61.23052813 37.9414952 68.94994474 42.89873844 76.64453125 47.89599609 C83.71561466 52.48006855 90.8339927 56.98988941 97.95581055 61.49462891 C98.85726807 62.06616699 99.75872559 62.63770508 100.6875 63.2265625 C101.49574219 63.73783691 102.30398438 64.24911133 103.13671875 64.77587891 C105 66 105 66 106 67 C106.09536242 70.16612663 106.12550636 73.31040628 106.11352539 76.47680664 C106.11367142 77.47181686 106.11381744 78.46682709 106.1139679 79.49198914 C106.11326831 82.79806662 106.10547379 86.10408854 106.09765625 89.41015625 C106.09579223 91.69559193 106.09436825 93.98102801 106.09336853 96.26646423 C106.08954207 102.29498387 106.0797107 108.32347959 106.06866455 114.35198975 C106.05845317 120.49832841 106.0538715 126.64467093 106.04882812 132.79101562 C106.03808854 144.86068762 106.0210106 156.93034182 106 169 C104.26088283 168.06158152 102.52300708 167.12086219 100.78564453 166.17919922 C99.8177298 165.65558807 98.84981506 165.13197693 97.85256958 164.59249878 C93.73077937 162.29143453 89.80597041 159.7346045 85.875 157.125 C84.13730919 155.98347569 82.3989974 154.84289627 80.66015625 153.703125 C79.74766113 153.10435547 78.83516602 152.50558594 77.89501953 151.88867188 C72.72378193 148.51502589 67.51681914 145.19729118 62.3125 141.875 C55.36303647 137.43491962 48.41810316 132.98880636 41.5 128.5 C34.32927155 123.84881375 27.13582757 119.23331435 19.9375 114.625 C18.87789063 113.94630859 17.81828125 113.26761719 16.7265625 112.56835938 C15.71207031 111.91931641 14.69757813 111.27027344 13.65234375 110.6015625 C12.75507568 110.02744629 11.85780762 109.45333008 10.93334961 108.86181641 C8.21489311 107.04570369 8.21489311 107.04570369 5.99546909 106.07356548 C0.44524422 103.27693556 0.44524422 103.27693556 -0.7264719 99.91651917 C-0.98731528 97.26992306 -0.98991098 94.72751515 -0.90820312 92.0690918 C-0.90937134 91.07349747 -0.91053955 90.07790314 -0.91174316 89.05213928 C-0.90617621 85.76640551 -0.84398707 82.48431694 -0.78125 79.19921875 C-0.7663266 76.91951989 -0.75494005 74.63979535 -0.74694824 72.36006165 C-0.71642271 66.36376942 -0.63785325 60.36903093 -0.54931641 54.37335205 C-0.46743558 48.25367249 -0.43093181 42.13374149 -0.390625 36.01367188 C-0.30486177 24.00843243 -0.16834743 12.00434548 0 0 Z " fill="#ECECE7" transform="translate(265,312)"/>
<path d="M0 0 C0.25512262 13.03013401 0.45044678 26.05967196 0.56993389 39.09179688 C0.62729001 45.1436396 0.7050498 51.19377113 0.82983398 57.24462891 C0.94955718 63.08678934 1.01516661 68.9273067 1.04364967 74.77059937 C1.06394024 76.99711986 1.10356701 79.22355255 1.16303062 81.44937134 C1.61057368 98.89925308 1.61057368 98.89925308 -2.3742981 104.09690857 C-5.18496401 106.17508593 -7.80243024 107.61280803 -11 109 C-12.41452897 109.86504086 -13.81899764 110.74726011 -15.203125 111.66015625 C-16.54987683 112.46464285 -17.89890465 113.26532966 -19.25 114.0625 C-26.28698645 118.29130289 -33.19819866 122.68408279 -40.0625 127.1875 C-48.30167381 132.59224829 -56.56992183 137.94700802 -64.875 143.25 C-72.05438273 147.83479054 -79.22751152 152.42811865 -86.375 157.0625 C-96.13692943 163.38665419 -96.13692943 163.38665419 -100.5 166.1875 C-101.3559375 166.73792969 -102.211875 167.28835938 -103.09375 167.85546875 C-105 169 -105 169 -106 169 C-106.2318188 155.82212609 -106.40944248 142.644738 -106.51812172 129.46523952 C-106.57028664 123.34515243 -106.6410234 117.22646132 -106.75439453 111.10717773 C-106.86314568 105.20021444 -106.92286143 99.29459258 -106.94877243 93.3867054 C-106.96723366 91.13428691 -107.00328697 88.88194097 -107.05730057 86.63009453 C-107.46409964 68.96606237 -107.46409964 68.96606237 -103.85676575 64.1219635 C-101.27658946 62.28544902 -98.94375458 61.13570676 -96 60 C-94.56318933 59.11450421 -93.14132166 58.20357292 -91.74609375 57.25390625 C-90.31129172 56.35454006 -88.87503667 55.45748868 -87.4375 54.5625 C-85.78210661 53.52414737 -84.127184 52.48504392 -82.47265625 51.4453125 C-81.59496582 50.89391602 -80.71727539 50.34251953 -79.81298828 49.77441406 C-74.65201691 46.51890808 -69.51365126 43.2280841 -64.375 39.9375 C-63.30113037 39.24986572 -62.22726074 38.56223145 -61.12084961 37.85375977 C-54.58576976 33.66552903 -48.06270679 29.45933106 -41.55053711 25.2355957 C-35.02767198 21.00896874 -28.48348444 16.81568925 -21.9375 12.625 C-20.87789063 11.94630859 -19.81828125 11.26761719 -18.7265625 10.56835938 C-16.7263725 9.28869525 -14.72496993 8.01092382 -12.72216797 6.73535156 C-10.99369077 5.63346673 -9.26836297 4.52661351 -7.54736328 3.41308594 C-2.22146214 0 -2.22146214 0 0 0 Z " fill="#AAA9A9" transform="translate(370,111)"/>
<path d="M0 0 C5.94 0 11.88 0 18 0 C18 5.94 18 11.88 18 18 C12.06 18 6.12 18 0 18 C0 12.06 0 6.12 0 0 Z " fill="#0D0D0D" transform="translate(8,484)"/>
<path d="M0 0 C5.94 0 11.88 0 18 0 C18 5.94 18 11.88 18 18 C12.06 18 6.12 18 0 18 C0 12.06 0 6.12 0 0 Z " fill="#0C0C0C" transform="translate(247,475)"/>
<path d="M0 0 C5.61 0 11.22 0 17 0 C17 5.61 17 11.22 17 17 C11.39 17 5.78 17 0 17 C0 11.39 0 5.78 0 0 Z " fill="#030303" transform="translate(444,382)"/>
<path d="M0 0 C5.61 0 11.22 0 17 0 C17 5.61 17 11.22 17 17 C11.39 17 5.78 17 0 17 C0 11.39 0 5.78 0 0 Z " fill="#050504" transform="translate(154,382)"/>
<path d="M0 0 C5.61 0 11.22 0 17 0 C17 5.61 17 11.22 17 17 C11.39 17 5.78 17 0 17 C0 11.39 0 5.78 0 0 Z " fill="#000000" transform="translate(384,305)"/>
<path d="M0 0 C5.61 0 11.22 0 17 0 C17 5.61 17 11.22 17 17 C11.39 17 5.78 17 0 17 C0 11.39 0 5.78 0 0 Z " fill="#000000" transform="translate(401,288)"/>
<path d="M0 0 C5.61 0 11.22 0 17 0 C17 5.61 17 11.22 17 17 C11.39 17 5.78 17 0 17 C0 11.39 0 5.78 0 0 Z " fill="#040404" transform="translate(324,177)"/>
<path d="M0 0 C5.61 0 11.22 0 17 0 C17 5.61 17 11.22 17 17 C11.39 17 5.78 17 0 17 C0 11.39 0 5.78 0 0 Z " fill="#050505" transform="translate(273,58)"/>
<path d="M0 0 C5.61 0 11.22 0 17 0 C17 5.28 17 10.56 17 16 C11.39 16 5.78 16 0 16 C0 10.72 0 5.44 0 0 Z " fill="#000000" transform="translate(94,280)"/>
</svg>
